<svg xmlns="http://www.w3.org/2000/svg" width="256" height="256" viewBox="0 0 100 100"><rect width="100" height="100" rx="20" fill="#100b3e"></rect><path fill="#f6fbfb" d="M30.79 78.39L30.79 78.39Q24.84 78.39 21.14 75.75Q17.44 73.12 17.44 67L17.44 67L17.44 26.62Q17.87 26.45 18.76 26.24Q19.65 26.03 20.67 26.03L20.67 26.03Q24.24 26.03 24.24 29.09L24.24 29.09L24.24 38.86L38.18 38.86Q38.44 39.29 38.69 40.01Q38.95 40.73 38.95 41.58L38.95 41.58Q38.95 44.47 36.40 44.47L36.40 44.47L24.24 44.47L24.24 66.57Q24.24 69.97 26.16 71.38Q28.07 72.78 31.55 72.78L31.55 72.78Q33.00 72.78 34.78 72.27Q36.57 71.76 37.76 71.08L37.76 71.08Q38.27 71.59 38.69 72.35Q39.12 73.12 39.12 74.14L39.12 74.14Q39.12 76.01 36.91 77.20Q34.70 78.39 30.79 78.39ZM82.55 24.67L82.55 70.82Q82.55 72.52 81.83 73.46Q81.11 74.39 79.58 75.33L79.58 75.33Q77.88 76.44 74.73 77.41Q71.59 78.39 67.51 78.39L67.51 78.39Q62.92 78.39 59.09 77.20Q55.27 76.01 52.51 73.50Q49.74 70.99 48.26 67.13Q46.77 63.26 46.77 57.82L46.77 57.82Q46.77 52.29 48.30 48.34Q49.83 44.39 52.42 41.84Q55.01 39.29 58.54 38.10Q62.07 36.91 66.06 36.91L66.06 36.91Q68.78 36.91 71.33 37.59Q73.88 38.27 75.75 39.29L75.75 39.29L75.75 22.20Q76.18 22.03 77.07 21.82Q77.96 21.61 78.90 21.61L78.90 21.61Q82.55 21.61 82.55 24.67L82.55 24.67ZM75.75 70.57L75.75 45.41Q74.05 44.22 71.84 43.37Q69.63 42.52 66.74 42.52L66.74 42.52Q64.11 42.52 61.77 43.33Q59.43 44.13 57.65 45.96Q55.86 47.79 54.80 50.76Q53.74 53.74 53.74 57.99L53.74 57.99Q53.74 65.81 57.48 69.30Q61.22 72.78 67.42 72.78L67.42 72.78Q70.40 72.78 72.31 72.14Q74.22 71.50 75.75 70.57L75.75 70.57Z"></path></svg>